# xmcd
#
# Track frame offsets:
#	150
#	23013
#	42795
#	64440
#	83292
#	132220
#	216868
#
# Disc length: 3695 seconds
# Revision: 0
# Processed by: cddbd v1.5.2PL0 Copyright (c) Steve Scherf et al.
# Submitted via: dBpowerAMP V12.0
#
DISCID=540e6d07
DTITLE=Angel Forrest - "LIVE" Love at the palace [CD2]
DYEAR=2014
DGENRE=Blues
TTITLE0=Tell Me Why
TTITLE1=Roll on Down
TTITLE2=Volcano
TTITLE3=Papa Come Quick
TTITLE4=Turtle Blues
TTITLE5=Mama - Whole Lotta Love
TTITLE6=Listen
EXTD=
EXTT0=
EXTT1=
EXTT2=
EXTT3=
EXTT4=
EXTT5=
EXTT6=
PLAYORDER=
